<mxfile host="app.diagrams.net" agent="Mozilla/5.0 (Windows NT 10.0; Win64; x64) AppleWebKit/537.36 (KHTML, like Gecko) Chrome/136.0.0.0 Safari/537.36" version="27.0.3">
  <diagram name="Page-1" id="e7e014a7-5840-1c2e-5031-d8a46d1fe8dd">
    <mxGraphModel dx="2180" dy="1078" grid="1" gridSize="10" guides="1" tooltips="1" connect="1" arrows="1" fold="1" page="1" pageScale="1" pageWidth="1169" pageHeight="826" background="none" math="0" shadow="0">
      <root>
        <mxCell id="0" />
        <mxCell id="1" parent="0" />
        <mxCell id="RnohNFTsDg4OLMfb260g-79" value="" style="group" vertex="1" connectable="0" parent="1">
          <mxGeometry x="164.5" y="128" width="1120" height="1180" as="geometry" />
        </mxCell>
        <mxCell id="RnohNFTsDg4OLMfb260g-80" value="" style="group" vertex="1" connectable="0" parent="RnohNFTsDg4OLMfb260g-79">
          <mxGeometry width="1120" height="1180" as="geometry" />
        </mxCell>
        <mxCell id="2" value="Super Admin" style="swimlane;whiteSpace=wrap" parent="RnohNFTsDg4OLMfb260g-80" vertex="1">
          <mxGeometry width="280" height="770" as="geometry" />
        </mxCell>
        <mxCell id="RnohNFTsDg4OLMfb260g-60" value="" style="edgeStyle=orthogonalEdgeStyle;rounded=0;orthogonalLoop=1;jettySize=auto;html=1;" edge="1" parent="2" source="RnohNFTsDg4OLMfb260g-61" target="RnohNFTsDg4OLMfb260g-62">
          <mxGeometry relative="1" as="geometry" />
        </mxCell>
        <mxCell id="RnohNFTsDg4OLMfb260g-61" value="" style="ellipse;shape=startState;fillColor=#000000;strokeColor=#ff0000;" vertex="1" parent="2">
          <mxGeometry x="125" y="42" width="30" height="30" as="geometry" />
        </mxCell>
        <mxCell id="RnohNFTsDg4OLMfb260g-62" value="Login" style="rounded=1;whiteSpace=wrap;html=1;" vertex="1" parent="2">
          <mxGeometry x="80" y="112" width="120" height="38" as="geometry" />
        </mxCell>
        <mxCell id="RnohNFTsDg4OLMfb260g-102" value="" style="edgeStyle=orthogonalEdgeStyle;rounded=0;orthogonalLoop=1;jettySize=auto;html=1;" edge="1" source="RnohNFTsDg4OLMfb260g-103" target="RnohNFTsDg4OLMfb260g-104" parent="2">
          <mxGeometry relative="1" as="geometry" />
        </mxCell>
        <mxCell id="RnohNFTsDg4OLMfb260g-105" value="" style="edgeStyle=orthogonalEdgeStyle;rounded=0;orthogonalLoop=1;jettySize=auto;html=1;" edge="1" source="RnohNFTsDg4OLMfb260g-106" target="RnohNFTsDg4OLMfb260g-107" parent="2">
          <mxGeometry relative="1" as="geometry" />
        </mxCell>
        <mxCell id="RnohNFTsDg4OLMfb260g-103" value="CRUD Category" style="rounded=1;whiteSpace=wrap;html=1;" vertex="1" parent="2">
          <mxGeometry x="80" y="300" width="120" height="38" as="geometry" />
        </mxCell>
        <mxCell id="RnohNFTsDg4OLMfb260g-104" value="CRUD Question" style="rounded=1;whiteSpace=wrap;html=1;" vertex="1" parent="2">
          <mxGeometry x="80" y="362" width="120" height="38" as="geometry" />
        </mxCell>
        <mxCell id="RnohNFTsDg4OLMfb260g-106" value="Melihat Hasil Survei" style="rounded=1;whiteSpace=wrap;html=1;" vertex="1" parent="2">
          <mxGeometry x="80" y="422" width="120" height="38" as="geometry" />
        </mxCell>
        <mxCell id="RnohNFTsDg4OLMfb260g-107" value="Export Excel" style="rounded=1;whiteSpace=wrap;html=1;" vertex="1" parent="2">
          <mxGeometry x="80" y="482" width="120" height="38" as="geometry" />
        </mxCell>
        <mxCell id="3" value="Admin" style="swimlane;whiteSpace=wrap" parent="RnohNFTsDg4OLMfb260g-80" vertex="1">
          <mxGeometry x="279.5" width="280" height="770" as="geometry" />
        </mxCell>
        <mxCell id="RnohNFTsDg4OLMfb260g-53" value="" style="edgeStyle=orthogonalEdgeStyle;rounded=0;orthogonalLoop=1;jettySize=auto;html=1;" edge="1" parent="3" source="13" target="RnohNFTsDg4OLMfb260g-52">
          <mxGeometry relative="1" as="geometry" />
        </mxCell>
        <mxCell id="13" value="" style="ellipse;shape=startState;fillColor=#000000;strokeColor=#ff0000;" parent="3" vertex="1">
          <mxGeometry x="125.5" y="40" width="30" height="30" as="geometry" />
        </mxCell>
        <mxCell id="RnohNFTsDg4OLMfb260g-52" value="Login" style="rounded=1;whiteSpace=wrap;html=1;" vertex="1" parent="3">
          <mxGeometry x="80.5" y="112" width="120" height="38" as="geometry" />
        </mxCell>
        <mxCell id="RnohNFTsDg4OLMfb260g-83" value="" style="edgeStyle=orthogonalEdgeStyle;rounded=0;orthogonalLoop=1;jettySize=auto;html=1;" edge="1" parent="3" source="RnohNFTsDg4OLMfb260g-77" target="RnohNFTsDg4OLMfb260g-82">
          <mxGeometry relative="1" as="geometry" />
        </mxCell>
        <mxCell id="RnohNFTsDg4OLMfb260g-77" value="CRUD Category" style="rounded=1;whiteSpace=wrap;html=1;" vertex="1" parent="3">
          <mxGeometry x="81" y="300" width="120" height="38" as="geometry" />
        </mxCell>
        <mxCell id="RnohNFTsDg4OLMfb260g-82" value="CRUD Question" style="rounded=1;whiteSpace=wrap;html=1;" vertex="1" parent="3">
          <mxGeometry x="81" y="362" width="120" height="38" as="geometry" />
        </mxCell>
        <mxCell id="RnohNFTsDg4OLMfb260g-92" value="" style="edgeStyle=orthogonalEdgeStyle;rounded=0;orthogonalLoop=1;jettySize=auto;html=1;" edge="1" parent="3" source="RnohNFTsDg4OLMfb260g-88" target="RnohNFTsDg4OLMfb260g-91">
          <mxGeometry relative="1" as="geometry" />
        </mxCell>
        <mxCell id="RnohNFTsDg4OLMfb260g-88" value="Melihat Hasil Survei" style="rounded=1;whiteSpace=wrap;html=1;" vertex="1" parent="3">
          <mxGeometry x="81" y="422" width="120" height="38" as="geometry" />
        </mxCell>
        <mxCell id="RnohNFTsDg4OLMfb260g-91" value="Export Excel" style="rounded=1;whiteSpace=wrap;html=1;" vertex="1" parent="3">
          <mxGeometry x="81" y="482" width="120" height="38" as="geometry" />
        </mxCell>
        <mxCell id="4" value="Sistem" style="swimlane;whiteSpace=wrap" parent="RnohNFTsDg4OLMfb260g-80" vertex="1">
          <mxGeometry x="560" width="280" height="770" as="geometry" />
        </mxCell>
        <mxCell id="RnohNFTsDg4OLMfb260g-49" value="" style="edgeStyle=orthogonalEdgeStyle;rounded=0;orthogonalLoop=1;jettySize=auto;html=1;" edge="1" parent="4" source="RnohNFTsDg4OLMfb260g-47" target="RnohNFTsDg4OLMfb260g-48">
          <mxGeometry relative="1" as="geometry">
            <Array as="points">
              <mxPoint x="140" y="112" />
              <mxPoint x="140" y="112" />
            </Array>
          </mxGeometry>
        </mxCell>
        <mxCell id="RnohNFTsDg4OLMfb260g-47" value="" style="ellipse;shape=startState;fillColor=#000000;strokeColor=#ff0000;" vertex="1" parent="4">
          <mxGeometry x="125" y="42" width="30" height="30" as="geometry" />
        </mxCell>
        <mxCell id="RnohNFTsDg4OLMfb260g-48" value="Tampilan Login" style="rounded=1;whiteSpace=wrap;html=1;" vertex="1" parent="4">
          <mxGeometry x="80" y="112" width="120" height="38" as="geometry" />
        </mxCell>
        <mxCell id="RnohNFTsDg4OLMfb260g-70" value="" style="edgeStyle=orthogonalEdgeStyle;rounded=0;orthogonalLoop=1;jettySize=auto;html=1;" edge="1" parent="4" source="RnohNFTsDg4OLMfb260g-48" target="RnohNFTsDg4OLMfb260g-69">
          <mxGeometry relative="1" as="geometry">
            <mxPoint x="140.02631578947376" y="220" as="sourcePoint" />
          </mxGeometry>
        </mxCell>
        <mxCell id="RnohNFTsDg4OLMfb260g-76" value="" style="edgeStyle=orthogonalEdgeStyle;rounded=0;orthogonalLoop=1;jettySize=auto;html=1;" edge="1" parent="4" source="RnohNFTsDg4OLMfb260g-69" target="RnohNFTsDg4OLMfb260g-75">
          <mxGeometry relative="1" as="geometry" />
        </mxCell>
        <mxCell id="RnohNFTsDg4OLMfb260g-69" value="Validasi&amp;nbsp;&lt;div&gt;User&lt;/div&gt;" style="rhombus;whiteSpace=wrap;html=1;" vertex="1" parent="4">
          <mxGeometry x="100" y="184" width="80" height="80" as="geometry" />
        </mxCell>
        <mxCell id="RnohNFTsDg4OLMfb260g-67" style="edgeStyle=orthogonalEdgeStyle;rounded=1;orthogonalLoop=1;jettySize=auto;html=1;entryX=0;entryY=0.5;entryDx=0;entryDy=0;curved=0;" edge="1" parent="4" target="RnohNFTsDg4OLMfb260g-69">
          <mxGeometry relative="1" as="geometry">
            <mxPoint x="-139.4473684210525" y="82" as="sourcePoint" />
            <Array as="points">
              <mxPoint x="-139.5" y="224" />
            </Array>
          </mxGeometry>
        </mxCell>
        <mxCell id="RnohNFTsDg4OLMfb260g-66" style="edgeStyle=orthogonalEdgeStyle;rounded=1;orthogonalLoop=1;jettySize=auto;html=1;entryX=0;entryY=0.5;entryDx=0;entryDy=0;curved=0;" edge="1" parent="4" target="RnohNFTsDg4OLMfb260g-69">
          <mxGeometry relative="1" as="geometry">
            <mxPoint x="-419.97368421052624" y="82" as="sourcePoint" />
            <Array as="points">
              <mxPoint x="-419.5" y="224" />
            </Array>
          </mxGeometry>
        </mxCell>
        <mxCell id="RnohNFTsDg4OLMfb260g-68" style="edgeStyle=orthogonalEdgeStyle;rounded=1;orthogonalLoop=1;jettySize=auto;html=1;entryX=1;entryY=0.5;entryDx=0;entryDy=0;curved=0;" edge="1" parent="4" target="RnohNFTsDg4OLMfb260g-69">
          <mxGeometry relative="1" as="geometry">
            <mxPoint x="420.02631578947376" y="82" as="sourcePoint" />
            <Array as="points">
              <mxPoint x="420.5" y="224" />
            </Array>
          </mxGeometry>
        </mxCell>
        <mxCell id="RnohNFTsDg4OLMfb260g-72" value="Tidak" style="text;html=1;align=center;verticalAlign=middle;whiteSpace=wrap;rounded=0;" vertex="1" parent="4">
          <mxGeometry x="188" y="194" width="60" height="30" as="geometry" />
        </mxCell>
        <mxCell id="RnohNFTsDg4OLMfb260g-73" value="Tidak" style="text;html=1;align=center;verticalAlign=middle;whiteSpace=wrap;rounded=0;" vertex="1" parent="4">
          <mxGeometry x="25.5" y="194" width="60" height="30" as="geometry" />
        </mxCell>
        <mxCell id="RnohNFTsDg4OLMfb260g-74" value="Ya" style="text;html=1;align=center;verticalAlign=middle;whiteSpace=wrap;rounded=0;" vertex="1" parent="4">
          <mxGeometry x="125" y="270" width="60" height="30" as="geometry" />
        </mxCell>
        <mxCell id="RnohNFTsDg4OLMfb260g-75" value="Dashboard User" style="rounded=1;whiteSpace=wrap;html=1;" vertex="1" parent="4">
          <mxGeometry x="80" y="300" width="120" height="38" as="geometry" />
        </mxCell>
        <mxCell id="RnohNFTsDg4OLMfb260g-112" value="Generate QR Code" style="rounded=1;whiteSpace=wrap;html=1;" vertex="1" parent="4">
          <mxGeometry x="80" y="482" width="120" height="38" as="geometry" />
        </mxCell>
        <mxCell id="RnohNFTsDg4OLMfb260g-41" value="Mahasiswa" style="swimlane;whiteSpace=wrap" vertex="1" parent="RnohNFTsDg4OLMfb260g-80">
          <mxGeometry x="840" width="280" height="770" as="geometry" />
        </mxCell>
        <mxCell id="RnohNFTsDg4OLMfb260g-63" value="" style="edgeStyle=orthogonalEdgeStyle;rounded=0;orthogonalLoop=1;jettySize=auto;html=1;" edge="1" parent="RnohNFTsDg4OLMfb260g-41" source="RnohNFTsDg4OLMfb260g-64" target="RnohNFTsDg4OLMfb260g-65">
          <mxGeometry relative="1" as="geometry" />
        </mxCell>
        <mxCell id="RnohNFTsDg4OLMfb260g-64" value="" style="ellipse;shape=startState;fillColor=#000000;strokeColor=#ff0000;" vertex="1" parent="RnohNFTsDg4OLMfb260g-41">
          <mxGeometry x="125" y="42" width="30" height="30" as="geometry" />
        </mxCell>
        <mxCell id="RnohNFTsDg4OLMfb260g-65" value="Login" style="rounded=1;whiteSpace=wrap;html=1;" vertex="1" parent="RnohNFTsDg4OLMfb260g-41">
          <mxGeometry x="80" y="112" width="120" height="38" as="geometry" />
        </mxCell>
        <mxCell id="RnohNFTsDg4OLMfb260g-94" style="edgeStyle=orthogonalEdgeStyle;rounded=0;orthogonalLoop=1;jettySize=auto;html=1;" edge="1" parent="RnohNFTsDg4OLMfb260g-41" source="RnohNFTsDg4OLMfb260g-85" target="RnohNFTsDg4OLMfb260g-93">
          <mxGeometry relative="1" as="geometry" />
        </mxCell>
        <mxCell id="RnohNFTsDg4OLMfb260g-85" value="Mengisi Survei" style="rounded=1;whiteSpace=wrap;html=1;" vertex="1" parent="RnohNFTsDg4OLMfb260g-41">
          <mxGeometry x="80" y="362" width="120" height="38" as="geometry" />
        </mxCell>
        <mxCell id="RnohNFTsDg4OLMfb260g-93" value="Download Surat" style="rounded=1;whiteSpace=wrap;html=1;" vertex="1" parent="RnohNFTsDg4OLMfb260g-41">
          <mxGeometry x="80" y="482" width="120" height="38" as="geometry" />
        </mxCell>
        <mxCell id="RnohNFTsDg4OLMfb260g-99" style="edgeStyle=orthogonalEdgeStyle;rounded=0;orthogonalLoop=1;jettySize=auto;html=1;entryX=0.5;entryY=0;entryDx=0;entryDy=0;" edge="1" parent="RnohNFTsDg4OLMfb260g-41" source="RnohNFTsDg4OLMfb260g-95" target="RnohNFTsDg4OLMfb260g-97">
          <mxGeometry relative="1" as="geometry" />
        </mxCell>
        <mxCell id="RnohNFTsDg4OLMfb260g-95" value="Melihat Surat" style="rounded=1;whiteSpace=wrap;html=1;" vertex="1" parent="RnohNFTsDg4OLMfb260g-41">
          <mxGeometry x="80" y="542" width="120" height="38" as="geometry" />
        </mxCell>
        <mxCell id="RnohNFTsDg4OLMfb260g-101" style="edgeStyle=orthogonalEdgeStyle;rounded=0;orthogonalLoop=1;jettySize=auto;html=1;entryX=0.5;entryY=0;entryDx=0;entryDy=0;" edge="1" parent="RnohNFTsDg4OLMfb260g-41" source="RnohNFTsDg4OLMfb260g-97" target="RnohNFTsDg4OLMfb260g-100">
          <mxGeometry relative="1" as="geometry" />
        </mxCell>
        <mxCell id="RnohNFTsDg4OLMfb260g-97" value="Scan QR Code" style="rounded=1;whiteSpace=wrap;html=1;" vertex="1" parent="RnohNFTsDg4OLMfb260g-41">
          <mxGeometry x="80" y="602" width="120" height="38" as="geometry" />
        </mxCell>
        <mxCell id="RnohNFTsDg4OLMfb260g-100" value="Melihat Verifikasi Surat" style="rounded=1;whiteSpace=wrap;html=1;" vertex="1" parent="RnohNFTsDg4OLMfb260g-41">
          <mxGeometry x="80" y="660" width="120" height="38" as="geometry" />
        </mxCell>
        <mxCell id="RnohNFTsDg4OLMfb260g-81" style="edgeStyle=orthogonalEdgeStyle;rounded=0;orthogonalLoop=1;jettySize=auto;html=1;entryX=1;entryY=0.5;entryDx=0;entryDy=0;strokeColor=default;endArrow=none;startFill=0;" edge="1" parent="RnohNFTsDg4OLMfb260g-80" source="RnohNFTsDg4OLMfb260g-75" target="RnohNFTsDg4OLMfb260g-77">
          <mxGeometry relative="1" as="geometry" />
        </mxCell>
        <mxCell id="RnohNFTsDg4OLMfb260g-87" style="edgeStyle=orthogonalEdgeStyle;rounded=1;orthogonalLoop=1;jettySize=auto;html=1;entryX=0;entryY=0.5;entryDx=0;entryDy=0;curved=0;" edge="1" parent="RnohNFTsDg4OLMfb260g-80" source="RnohNFTsDg4OLMfb260g-82" target="RnohNFTsDg4OLMfb260g-85">
          <mxGeometry relative="1" as="geometry">
            <Array as="points">
              <mxPoint x="876" y="381" />
              <mxPoint x="920" y="382" />
            </Array>
          </mxGeometry>
        </mxCell>
        <mxCell id="RnohNFTsDg4OLMfb260g-90" style="edgeStyle=orthogonalEdgeStyle;rounded=1;orthogonalLoop=1;jettySize=auto;html=1;entryX=1;entryY=0.5;entryDx=0;entryDy=0;curved=0;endArrow=none;startFill=0;" edge="1" parent="RnohNFTsDg4OLMfb260g-80" source="RnohNFTsDg4OLMfb260g-85" target="RnohNFTsDg4OLMfb260g-88">
          <mxGeometry relative="1" as="geometry">
            <Array as="points">
              <mxPoint x="980" y="441" />
            </Array>
          </mxGeometry>
        </mxCell>
        <mxCell id="RnohNFTsDg4OLMfb260g-109" style="edgeStyle=orthogonalEdgeStyle;rounded=0;orthogonalLoop=1;jettySize=auto;html=1;entryX=1;entryY=0.5;entryDx=0;entryDy=0;" edge="1" parent="RnohNFTsDg4OLMfb260g-80" source="RnohNFTsDg4OLMfb260g-77" target="RnohNFTsDg4OLMfb260g-103">
          <mxGeometry relative="1" as="geometry" />
        </mxCell>
        <mxCell id="RnohNFTsDg4OLMfb260g-110" style="edgeStyle=orthogonalEdgeStyle;rounded=0;orthogonalLoop=1;jettySize=auto;html=1;endArrow=none;startFill=0;" edge="1" parent="RnohNFTsDg4OLMfb260g-80" source="RnohNFTsDg4OLMfb260g-104" target="RnohNFTsDg4OLMfb260g-82">
          <mxGeometry relative="1" as="geometry" />
        </mxCell>
        <mxCell id="RnohNFTsDg4OLMfb260g-111" style="edgeStyle=orthogonalEdgeStyle;rounded=0;orthogonalLoop=1;jettySize=auto;html=1;entryX=1;entryY=0.5;entryDx=0;entryDy=0;" edge="1" parent="RnohNFTsDg4OLMfb260g-80" source="RnohNFTsDg4OLMfb260g-88" target="RnohNFTsDg4OLMfb260g-106">
          <mxGeometry relative="1" as="geometry" />
        </mxCell>
        <mxCell id="RnohNFTsDg4OLMfb260g-113" style="edgeStyle=orthogonalEdgeStyle;rounded=0;orthogonalLoop=1;jettySize=auto;html=1;entryX=1;entryY=0.5;entryDx=0;entryDy=0;" edge="1" parent="RnohNFTsDg4OLMfb260g-80" source="RnohNFTsDg4OLMfb260g-93" target="RnohNFTsDg4OLMfb260g-112">
          <mxGeometry relative="1" as="geometry" />
        </mxCell>
        <mxCell id="RnohNFTsDg4OLMfb260g-114" style="edgeStyle=orthogonalEdgeStyle;rounded=1;orthogonalLoop=1;jettySize=auto;html=1;entryX=0;entryY=0.5;entryDx=0;entryDy=0;curved=0;" edge="1" parent="RnohNFTsDg4OLMfb260g-80" source="RnohNFTsDg4OLMfb260g-112" target="RnohNFTsDg4OLMfb260g-95">
          <mxGeometry relative="1" as="geometry">
            <Array as="points">
              <mxPoint x="700" y="561" />
            </Array>
          </mxGeometry>
        </mxCell>
      </root>
    </mxGraphModel>
  </diagram>
</mxfile>
